<?xml version="1.0" encoding="UTF-8"?>
<!DOCTYPE svg PUBLIC "-//W3C//DTD SVG 1.1//EN" "http://www.w3.org/Graphics/SVG/1.1/DTD/svg11.dtd">
<!-- Creator: CorelDRAW -->
<svg xmlns="http://www.w3.org/2000/svg" xml:space="preserve" width="36.0005mm" height="29.8136mm" version="1.1" style="shape-rendering:geometricPrecision; text-rendering:geometricPrecision; image-rendering:optimizeQuality; fill-rule:evenodd; clip-rule:evenodd"
viewBox="0 0 1251.98 1036.82"
 xmlns:xlink="http://www.w3.org/1999/xlink"
 xmlns:xodm="http://www.corel.com/coreldraw/odm/2003">
 <defs>
  <style type="text/css">
   <![CDATA[
    .fil0 {fill:#7B513C}
   ]]>
  </style>
 </defs>
 <g id="Camada_x0020_1">
  <metadata id="CorelCorpID_0Corel-Layer"/>
  <path class="fil0" d="M523.58 440.46c-65.82,16.83 -136.28,46.78 -182.06,85.58 -49.57,42 -70.46,82.75 -74.23,117.85 -3.96,36.83 10.58,68.13 32.86,90.01 87.77,86.18 234.5,85.74 353.4,22.55 73.37,-38.99 130.86,-76.02 175.57,-110.41 -12.65,34.03 -31.11,68.02 -56.54,101.48 -101.05,132.95 -242.49,200.82 -375.7,234.61 -200.93,50.96 -383.51,24.47 -383.51,24.47 -6.38,-0.93 -12.31,3.5 -13.24,9.88 -0.93,6.38 3.5,12.31 9.88,13.25 0,0 186.92,27.22 392.61,-24.95 137.86,-34.96 284.01,-105.54 388.57,-243.12 35.71,-46.99 58.51,-94.96 71.14,-142.65 25.42,-21.97 45.51,-42.68 61.17,-61.91 20.82,-25.56 34,-48.74 41.67,-69.01 1.54,-0.59 3.09,-1.23 4.66,-1.94 35.3,-15.91 51.27,-52.35 58.91,-98.96 10.28,-62.69 6.05,-144.47 28.62,-209.56 35.49,-102.34 119.93,-141.85 180.37,-128.18 6.29,1.42 12.55,-2.53 13.97,-8.82 1.42,-6.29 -2.53,-12.55 -8.82,-13.97 -68.89,-15.58 -167.14,26.64 -207.6,143.32 -22.99,66.31 -19.13,149.57 -29.6,213.43 -5.15,31.39 -13.39,57.98 -32.45,73.45 4.3,-33.58 -8.18,-56.03 -23.04,-65.74 -7.88,-5.15 -16.68,-7.1 -25.13,-5.88 -34.6,5 -45.2,39.58 -34.8,68.84 6.02,16.94 19.02,31.53 37.23,36.63 3.29,0.93 6.77,1.55 10.43,1.81 -7.21,15.09 -17.8,31.75 -32.53,49.84 -9.77,11.99 -21.33,24.57 -34.9,37.67 13.08,-84.88 -3.89,-167.77 -35.01,-241.5 -52.91,-125.31 -146.94,-223.76 -202.1,-259.74 -84.82,-55.34 -155.42,-78.49 -208.48,-78.76 -37.88,-0.19 -67.37,11.11 -87.78,30.48 -20.59,19.52 -32.21,47.44 -33.3,81.31 -1.53,47.6 18.04,107.64 62.59,171.34 42.97,61.43 101.65,117.1 157.21,157.33zm317.72 165.81c22.11,-90.75 5.74,-180.22 -27.38,-258.67 -50.71,-120.12 -140.46,-214.77 -193.34,-249.26 -79.81,-52.06 -145.9,-74.72 -195.84,-74.96 -30.78,-0.15 -54.99,8.33 -71.59,24.07 -16.43,15.58 -25.15,38.08 -26.02,65.11 -1.41,43.75 17.42,98.64 58.38,157.19 45.9,65.62 110.31,124.76 168.26,163.85 30.02,-5.97 57.98,-8.86 80.82,-8.24 22.36,0.61 40.16,4.75 51.25,11.8 9.95,6.33 15.45,14.92 16.31,25.44 1.2,14.91 -2.83,25.39 -9.74,32.31 -9.51,9.52 -26.34,12.93 -48.54,8.08 -25.07,-5.47 -58.45,-21.37 -94.53,-44.82 -67.7,14.54 -144.62,44.94 -192.72,85.7 -43.42,36.79 -62.8,71.78 -66.11,102.52 -3.12,29 8.46,53.61 26,70.84 80.94,79.48 216.4,76.86 326.06,18.58 87.61,-46.55 152.04,-90.09 198.73,-129.54zm-258.03 -154.18c24.83,14.34 47.45,24.1 65.58,28.06 7.11,1.55 13.4,2.17 18.67,1.53 3.46,-0.42 6.37,-1.3 8.36,-3.3 2.92,-2.91 3.49,-7.62 2.98,-13.91 -0.37,-4.59 -4.21,-7.33 -9.42,-9.65 -8.68,-3.87 -20.89,-5.71 -35.48,-6.11 -14.91,-0.4 -32.12,0.77 -50.69,3.38zm363.66 16.78c1.31,-4.65 2.25,-9.1 2.88,-13.35 2.9,-19.78 -1.29,-34.34 -9.15,-42.18 -3.64,-3.63 -8,-5.61 -12.28,-4.99 -14.27,2.07 -19.43,14.62 -18.44,27.09 0.99,12.65 7.86,25.88 19.94,31.34 4.92,2.22 10.62,3.03 17.05,2.09z"/>
 </g>
</svg>
